<svg id="visual" viewBox="0 0 1920 1080" width="1920" height="1080" xmlns="http://www.w3.org/2000/svg" xmlns:xlink="http://www.w3.org/1999/xlink" version="1.1"><rect x="0" y="0" width="1920" height="1080" fill="#001220"></rect><defs><linearGradient id="grad1_0" x1="43.8%" y1="0%" x2="100%" y2="100%"><stop offset="14.444444444444446%" stop-color="#94a794" stop-opacity="1"></stop><stop offset="85.55555555555554%" stop-color="#94a794" stop-opacity="1"></stop></linearGradient></defs><defs><linearGradient id="grad1_1" x1="43.8%" y1="0%" x2="100%" y2="100%"><stop offset="14.444444444444446%" stop-color="#94a794" stop-opacity="1"></stop><stop offset="85.55555555555554%" stop-color="#54736e" stop-opacity="1"></stop></linearGradient></defs><defs><linearGradient id="grad1_2" x1="43.8%" y1="0%" x2="100%" y2="100%"><stop offset="14.444444444444446%" stop-color="#234148" stop-opacity="1"></stop><stop offset="85.55555555555554%" stop-color="#54736e" stop-opacity="1"></stop></linearGradient></defs><defs><linearGradient id="grad1_3" x1="43.8%" y1="0%" x2="100%" y2="100%"><stop offset="14.444444444444446%" stop-color="#234148" stop-opacity="1"></stop><stop offset="85.55555555555554%" stop-color="#001220" stop-opacity="1"></stop></linearGradient></defs><defs><linearGradient id="grad2_0" x1="0%" y1="0%" x2="56.3%" y2="100%"><stop offset="14.444444444444446%" stop-color="#94a794" stop-opacity="1"></stop><stop offset="85.55555555555554%" stop-color="#94a794" stop-opacity="1"></stop></linearGradient></defs><defs><linearGradient id="grad2_1" x1="0%" y1="0%" x2="56.3%" y2="100%"><stop offset="14.444444444444446%" stop-color="#54736e" stop-opacity="1"></stop><stop offset="85.55555555555554%" stop-color="#94a794" stop-opacity="1"></stop></linearGradient></defs><defs><linearGradient id="grad2_2" x1="0%" y1="0%" x2="56.3%" y2="100%"><stop offset="14.444444444444446%" stop-color="#54736e" stop-opacity="1"></stop><stop offset="85.55555555555554%" stop-color="#234148" stop-opacity="1"></stop></linearGradient></defs><defs><linearGradient id="grad2_3" x1="0%" y1="0%" x2="56.3%" y2="100%"><stop offset="14.444444444444446%" stop-color="#001220" stop-opacity="1"></stop><stop offset="85.55555555555554%" stop-color="#234148" stop-opacity="1"></stop></linearGradient></defs><g transform="translate(1920, 0)"><path d="M0 864C-60.7 807.2 -121.3 750.3 -198.8 741.8C-276.2 733.3 -370.4 773.1 -432 748.2C-493.6 723.4 -522.5 633.7 -574.2 574.2C-625.8 514.6 -700.1 485 -745.6 430.5C-791.2 376 -808 296.4 -823 220.5C-837.9 144.6 -851 72.3 -864 0L0 0Z" fill="#102934"></path><path d="M0 648C-45.5 605.4 -91 562.8 -149.1 556.4C-207.2 550 -277.8 579.9 -324 561.2C-370.2 542.5 -391.9 475.3 -430.6 430.6C-469.3 385.9 -525.1 363.8 -559.2 322.9C-593.4 282 -606 222.3 -617.2 165.4C-628.4 108.4 -638.2 54.2 -648 0L0 0Z" fill="#39595b"></path><path d="M0 432C-30.3 403.6 -60.7 375.2 -99.4 370.9C-138.1 366.7 -185.2 386.6 -216 374.1C-246.8 361.7 -261.3 316.9 -287.1 287.1C-312.9 257.3 -350 242.5 -372.8 215.3C-395.6 188 -404 148.2 -411.5 110.3C-419 72.3 -425.5 36.1 -432 0L0 0Z" fill="#728d80"></path><path d="M0 216C-15.2 201.8 -30.3 187.6 -49.7 185.5C-69.1 183.3 -92.6 193.3 -108 187.1C-123.4 180.8 -130.6 158.4 -143.5 143.5C-156.4 128.6 -175 121.3 -186.4 107.6C-197.8 94 -202 74.1 -205.7 55.1C-209.5 36.1 -212.7 18.1 -216 0L0 0Z" fill="#94a794"></path></g><g transform="translate(0, 1080)"><path d="M0 -864C73.8 -834.9 147.7 -805.7 204.5 -763.1C261.3 -720.4 301 -664.3 371 -642.6C441 -620.9 541.3 -633.6 596.1 -596.1C650.9 -558.6 660.2 -470.8 698 -403C735.8 -335.2 802.1 -287.5 834.6 -223.6C867 -159.8 865.5 -79.9 864 0L0 0Z" fill="#102934"></path><path d="M0 -648C55.4 -626.1 110.8 -604.3 153.4 -572.3C195.9 -540.3 225.7 -498.2 278.2 -481.9C330.8 -465.7 406 -475.2 447.1 -447.1C488.2 -418.9 495.2 -353.1 523.5 -302.3C551.9 -251.4 601.6 -215.6 625.9 -167.7C650.2 -119.8 649.1 -59.9 648 0L0 0Z" fill="#39595b"></path><path d="M0 -432C36.9 -417.4 73.8 -402.9 102.2 -381.5C130.6 -360.2 150.5 -332.1 185.5 -321.3C220.5 -310.4 270.6 -316.8 298 -298C325.4 -279.3 330.1 -235.4 349 -201.5C367.9 -167.6 401.1 -143.7 417.3 -111.8C433.5 -79.9 432.7 -39.9 432 0L0 0Z" fill="#728d80"></path><path d="M0 -216C18.5 -208.7 36.9 -201.4 51.1 -190.8C65.3 -180.1 75.2 -166.1 92.7 -160.6C110.3 -155.2 135.3 -158.4 149 -149C162.7 -139.6 165.1 -117.7 174.5 -100.8C184 -83.8 200.5 -71.9 208.6 -55.9C216.7 -39.9 216.4 -20 216 0L0 0Z" fill="#94a794"></path></g></svg>